<svg xmlns="http://www.w3.org/2000/svg" xmlns:xlink="http://www.w3.org/1999/xlink" preserveAspectRatio="xMidYMid meet" version="1.0" viewBox="0.0 0.0 65.0 60.0" zoomAndPan="magnify" style="fill: rgb(0, 0, 0);" original_string_length="2756"><g id="__id0_s6gvjxu7vp"><path d="M60 10L60 5 55 5 55 0 45 0 40 0 40 5 35 5 35 10 30 10 30 5 25 5 25 0 15 0 10 0 10 5 5 5 5 10 0 10 0 30 5 30 5 35 10 35 10 40 15 40 15 45 20 45 20 50 25 50 25 55 30 55 30 60 35 60 35 55 40 55 40 50 45 50 45 45 50 45 50 40 55 40 55 35 60 35 60 30 65 30 65 10z" style="fill: rgb(0, 0, 0);"/></g><g><g id="__id1_s6gvjxu7vp"><path d="M60 10L60 5 55 5 55 0 40 0 40 5 35 5 35 10 30 10 30 5 25 5 25 0 10 0 10 5 5 5 5 10 0 10 0 30 5 30 5 35 10 35 10 40 15 40 15 45 20 45 20 50 25 50 25 55 30 55 30 60 35 60 35 55 40 55 40 50 45 50 45 45 50 45 50 40 55 40 55 35 60 35 60 30 65 30 65 10z" style="fill: rgb(189, 1, 1);"/></g><g id="__id2_s6gvjxu7vp"><path d="M10 0H15V5H10z" style="fill: rgb(0, 0, 0);"/></g><g id="__id3_s6gvjxu7vp"><path d="M5 5H10V10H5z" style="fill: rgb(0, 0, 0);"/></g><g id="__id4_s6gvjxu7vp"><path d="M0 10H5V30H0z" style="fill: rgb(0, 0, 0);"/></g><g id="__id5_s6gvjxu7vp"><path d="M5 30H10V35H5z" style="fill: rgb(0, 0, 0);"/></g><g id="__id6_s6gvjxu7vp"><path d="M10 35H15V40H10z" style="fill: rgb(0, 0, 0);"/></g><g id="__id7_s6gvjxu7vp"><path d="M15 40H20V45H15z" style="fill: rgb(0, 0, 0);"/></g><g id="__id8_s6gvjxu7vp"><path d="M20 45H25V50H20z" style="fill: rgb(0, 0, 0);"/></g><g id="__id9_s6gvjxu7vp"><path d="M25 50H30V55H25z" style="fill: rgb(0, 0, 0);"/></g><g id="__id10_s6gvjxu7vp"><path d="M30 55H35V60H30z" style="fill: rgb(0, 0, 0);"/></g><g id="__id11_s6gvjxu7vp"><path d="M35 5H40V10H35z" style="fill: rgb(0, 0, 0);"/></g><g id="__id12_s6gvjxu7vp"><path d="M40 0H45V5H40z" style="fill: rgb(0, 0, 0);"/></g><g id="__id13_s6gvjxu7vp"><path d="M15 35H20V40H15z" style="fill: rgb(137, 7, 7);"/></g><g id="__id14_s6gvjxu7vp"><path d="M20 40H25V45H20z" style="fill: rgb(137, 7, 7);"/></g><g id="__id15_s6gvjxu7vp"><path d="M25 45H30V50H25z" style="fill: rgb(137, 7, 7);"/></g><g id="__id16_s6gvjxu7vp"><path d="M30 50H35V55H30z" style="fill: rgb(137, 7, 7);"/></g><g id="__id17_s6gvjxu7vp"><path d="M10 5H15V10H10z" style="fill: rgb(137, 7, 7);"/></g><g id="__id18_s6gvjxu7vp"><path d="M15 20L15 15 10 15 10 10 5 10 5 30 10 30 10 35 15 35 15 30 15 25 10 25 10 20z" style="fill: rgb(137, 7, 7);"/></g><g id="__id19_s6gvjxu7vp"><path d="M20 30H25V35H20z" style="fill: rgb(137, 7, 7);"/></g><g id="__id20_s6gvjxu7vp"><path d="M25 25H30V30H25z" style="fill: rgb(137, 7, 7);"/></g><g id="__id21_s6gvjxu7vp"><path d="M30 40H35V45H30z" style="fill: rgb(137, 7, 7);"/></g><g id="__id22_s6gvjxu7vp"><path d="M25 35H30V40H25z" style="fill: rgb(137, 7, 7);"/></g><g id="__id23_s6gvjxu7vp"><path d="M40 35H45V40H40z" style="fill: rgb(137, 7, 7);"/></g><g id="__id24_s6gvjxu7vp"><path d="M35 45H40V50H35z" style="fill: rgb(137, 7, 7);"/></g><g id="__id25_s6gvjxu7vp"><path d="M15 15H20V20H15z" style="fill: rgb(248, 255, 251);"/></g><g id="__id26_s6gvjxu7vp"><path d="M10 20H15V25H10z" style="fill: rgb(248, 255, 251);"/></g><g id="__id27_s6gvjxu7vp"><path d="M10 10H15V15H10z" style="fill: rgb(248, 255, 251);"/></g><g id="__id28_s6gvjxu7vp" style="fill: rgb(162, 25, 25);"><path d="M15 10H25V15H15z" style="fill: inherit;"/><path d="M10 15H15V20H10z" style="fill: inherit;"/><path d="M15 30L20 30 25 30 25 25 20 25 20 20 15 20 15 25z" style="fill: inherit;"/></g></g></svg>